HIERARCHY
ROOT hip
{
  OFFSET 0 0 0
  CHANNELS 6 Xposition Yposition Zposition Zrotation Yrotation Xrotation
  JOINT abdomen
  {
    OFFSET 0 20.6881 -0.73152
    CHANNELS 3 Zrotation Xrotation Yrotation
    JOINT chest
    {
      OFFSET 0 11.7043 -0.48768
      CHANNELS 3 Zrotation Xrotation Yrotation
      JOINT neck
      {
        OFFSET 0 22.1894 -2.19456
        CHANNELS 3 Zrotation Xrotation Yrotation
        JOINT head
        {
          OFFSET -0.24384 7.07133 1.2192
          CHANNELS 3 Zrotation Xrotation Yrotation
          JOINT leftEye
          {
            OFFSET 4.14528 8.04674 8.04672
            CHANNELS 3 Zrotation Xrotation Yrotation
            End Site
            {
              OFFSET 1 0 0
            }
          }
          JOINT rightEye
          {
            OFFSET -3.6576 8.04674 8.04672
            CHANNELS 3 Zrotation Xrotation Yrotation
            End Site
            {
              OFFSET 1 0 0
            }
          }
        }
      }
      JOINT rCollar
      {
        OFFSET -2.68224 19.2634 -4.8768
        CHANNELS 3 Zrotation Xrotation Yrotation
        JOINT rShldr
        {
          OFFSET -8.77824 -1.95073 1.46304
          CHANNELS 3 Zrotation Xrotation Yrotation
          JOINT rForeArm
          {
            OFFSET -28.1742 -1.7115 0.48768
            CHANNELS 3 Zrotation Xrotation Yrotation
            JOINT rHand
            {
              OFFSET -22.5879 0.773209 7.07136
              CHANNELS 3 Zrotation Xrotation Yrotation
              JOINT rThumb1
              {
                OFFSET -1.2192 -0.487915 3.41376
                CHANNELS 3 Zrotation Xrotation Yrotation
                JOINT rThumb2
                {
                  OFFSET -3.37035 -0.52449 3.41376
                  CHANNELS 3 Zrotation Xrotation Yrotation
                  End Site
                  {
                    OFFSET -1.78271 -1.18214 1.43049
                  }
                }
              }
              JOINT rIndex1
              {
                OFFSET -7.75947 0.938293 5.60832
                CHANNELS 3 Zrotation Xrotation Yrotation
                JOINT rIndex2
                {
                  OFFSET -2.54057 -0.884171 1.56538
                  CHANNELS 3 Zrotation Xrotation Yrotation
                  End Site
                  {
                    OFFSET -1.62519 -0.234802 1.16502
                  }
                }
              }
              JOINT rMid1
              {
                OFFSET -8.24714 1.18213 3.41376
                CHANNELS 3 Zrotation Xrotation Yrotation
                JOINT rMid2
                {
                  OFFSET -3.10165 -0.590103 1.0647
                  CHANNELS 3 Zrotation Xrotation Yrotation
                  End Site
                  {
                    OFFSET -2.48547 -0.328903 0.83742
                  }
                }
              }
              JOINT rRing1
              {
                OFFSET -8.82822 0.546677 1.51678
                CHANNELS 3 Zrotation Xrotation Yrotation
                JOINT rRing2
                {
                  OFFSET -2.60934 -0.819778 -0.0198488
                  CHANNELS 3 Zrotation Xrotation Yrotation
                  End Site
                  {
                    OFFSET -2.33842 -0.294052 0.168128
                  }
                }
              }
              JOINT rPinky1
              {
                OFFSET -8.27202 -0.0477905 -0.4584
                CHANNELS 3 Zrotation Xrotation Yrotation
                JOINT rPinky2
                {
                  OFFSET -1.82734 -0.647385 -0.700984
                  CHANNELS 3 Zrotation Xrotation Yrotation
                  End Site
                  {
                    OFFSET -1.69225 -0.51767 -0.607171
                  }
                }
              }
            }
          }
        }
      }
      JOINT lCollar
      {
        OFFSET 2.68224 19.2634 -4.8768
        CHANNELS 3 Zrotation Xrotation Yrotation
        JOINT lShldr
        {
          OFFSET 8.77824 -1.95073 1.46304
          CHANNELS 3 Zrotation Xrotation Yrotation
          JOINT lForeArm
          {
            OFFSET 28.1742 -1.7115 0.48768
            CHANNELS 3 Zrotation Xrotation Yrotation
            JOINT lHand
            {
              OFFSET 22.5879 0.773209 7.07136
              CHANNELS 3 Zrotation Xrotation Yrotation
              JOINT lThumb1
              {
                OFFSET 1.2192 -0.487915 3.41376
                CHANNELS 3 Zrotation Xrotation Yrotation
                JOINT lThumb2
                {
                  OFFSET 3.37035 -0.52449 3.41376
                  CHANNELS 3 Zrotation Xrotation Yrotation
                  End Site
                  {
                    OFFSET 1.78271 -1.18214 1.43049
                  }
                }
              }
              JOINT lIndex1
              {
                OFFSET 7.75947 0.938293 5.60832
                CHANNELS 3 Zrotation Xrotation Yrotation
                JOINT lIndex2
                {
                  OFFSET 2.54057 -0.884171 1.56538
                  CHANNELS 3 Zrotation Xrotation Yrotation
                  End Site
                  {
                    OFFSET 1.62519 -0.234802 1.16502
                  }
                }
              }
              JOINT lMid1
              {
                OFFSET 8.24714 1.18213 3.41376
                CHANNELS 3 Zrotation Xrotation Yrotation
                JOINT lMid2
                {
                  OFFSET 3.10165 -0.590103 1.0647
                  CHANNELS 3 Zrotation Xrotation Yrotation
                  End Site
                  {
                    OFFSET 2.48547 -0.328903 0.83742
                  }
                }
              }
              JOINT lRing1
              {
                OFFSET 8.82822 0.546677 1.51678
                CHANNELS 3 Zrotation Xrotation Yrotation
                JOINT lRing2
                {
                  OFFSET 2.60934 -0.819778 -0.0198488
                  CHANNELS 3 Zrotation Xrotation Yrotation
                  End Site
                  {
                    OFFSET 2.33842 -0.294052 0.168128
                  }
                }
              }
              JOINT lPinky1
              {
                OFFSET 8.27202 -0.0477905 -0.4584
                CHANNELS 3 Zrotation Xrotation Yrotation
                JOINT lPinky2
                {
                  OFFSET 1.82734 -0.647385 -0.700984
                  CHANNELS 3 Zrotation Xrotation Yrotation
                  End Site
                  {
                    OFFSET 1.69225 -0.51767 -0.607171
                  }
                }
              }
            }
          }
        }
      }
    }
  }
  JOINT rButtock
  {
    OFFSET -8.77824 4.35084 1.2192
    CHANNELS 3 Zrotation Xrotation Yrotation
    JOINT rThigh
    {
      OFFSET 0 -1.70687 -2.19456
      CHANNELS 3 Zrotation Xrotation Yrotation
      JOINT rShin
      {
        OFFSET 0 -36.8199 0.73152
        CHANNELS 3 Zrotation Xrotation Yrotation
        JOINT rFoot
        {
          OFFSET 0.73152 -45.1104 -5.12064
          CHANNELS 3 Zrotation Xrotation Yrotation
          End Site
          {
            OFFSET -1.1221 -3.69964 12.103
          }
        }
      }
    }
  }
  JOINT lButtock
  {
    OFFSET 8.77824 4.35084 1.2192
    CHANNELS 3 Zrotation Xrotation Yrotation
    JOINT lThigh
    {
      OFFSET 0 -1.70687 -2.19456
      CHANNELS 3 Zrotation Xrotation Yrotation
      JOINT lShin
      {
        OFFSET 0 -36.8199 0.73152
        CHANNELS 3 Zrotation Xrotation Yrotation
        JOINT lFoot
        {
          OFFSET -0.73152 -45.1104 -5.12064
          CHANNELS 3 Zrotation Xrotation Yrotation
          End Site
          {
            OFFSET 1.1221 -3.69964 12.103
          }
        }
      }
    }
  }
}
MOTION
Frames:	10
Frame Time:	0.00833333
0.0 0.0 0.0 0.0 0.0 0.0 0.0 0.0 0.0 0.0 0.0 0.0 0.0 0.0 0.0 0.0 0.0 0.0 0.0 0.0 0.0 0.0 0.0 0.0 0.0 0.0 0.0 0.0 0.0 0.0 0.0 0.0 0.0 0.0 0.0 0.0 0.0 0.0 0.0 0.0 0.0 0.0 0.0 0.0 0.0 0.0 0.0 0.0 0.0 0.0 0.0 0.0 0.0 0.0 0.0 0.0 0.0 0.0 0.0 0.0 0.0 0.0 0.0 0.0 0.0 0.0 0.0 0.0 0.0 0.0 0.0 0.0 0.0 0.0 0.0 0.0 0.0 0.0 0.0 0.0 0.0 0.0 0.0 0.0 0.0 0.0 0.0 0.0 0.0 0.0 0.0 0.0 0.0 0.0 0.0 0.0 0.0 0.0 0.0 0.0 0.0 0.0 0.0 0.0 0.0 0.0 0.0 0.0 0.0 0.0 0.0 0.0 0.0 0.0 0.0 0.0 0.0 0.0 0.0 0.0 0.0 0.0 0.0 0.0 0.0 0.0 0.0 0.0 0.0 0.0 0.0 0.0
141.103 83.6673 3.60995 0.0 -0.0 -0.0 -0.0 0.0 -0.0 -0.0 -0.0 0.0 1.115182 19.714459 -163.791626 6.835951 18.56806 162.479082 -0.0 -0.0 0.0 -0.0 -0.0 0.0 -143.620413 38.233348 148.080496 -153.748773 -14.787283 171.174154 -4.625952 40.004704 4.174796 2.283037 -7.197884 0.390594 51.059793 -41.203951 12.856726 -15.031555 -8.481998 -17.086335 -151.353117 -17.158427 121.133109 24.274468 -5.704364 -11.74772 -0.057679 0.167876 0.032027 7.467793 -22.925573 -1.554779 -145.099706 -1.521107 -178.650165 21.875769 19.281956 -6.468041 -126.797849 -26.619602 -124.512652 -22.09133 -41.691272 -25.199617 150.168677 21.535282 -155.275413 -17.780086 14.090586 -12.56256 -90.540094 71.872129 103.606501 137.81122 68.378667 -115.864731 -8.270536 -8.263169 0.681995 38.282123 28.611917 -30.263768 -45.282556 -63.865437 -4.306423 109.703469 32.995638 -86.050277 125.644075 49.839986 -115.274123 6.180142 30.257929 -4.514819 72.133176 72.974596 -89.989695 -5.656233 0.310325 14.819573 -5.663198 16.872151 -5.087837 1.089093 -2.112742 1.508047 -180.0 75.749642 -0.0 -180.0 73.473292 -180.0 4.128173 -4.565677 138.175617 142.562047 -10.395149 -35.837866 -180.0 75.749642 -0.0 -180.0 73.473292 -180.0 -4.128173 -4.565677 -138.175617 -142.562047 -10.395149 35.837866
140.985 83.8287 3.6316600000000006 0.0 -0.0 -0.0 -0.0 0.0 -0.0 -0.0 0.0 -0.0 -8.133567 10.422116 -81.502261 11.496437 6.51512 81.58876 -0.0 -0.0 0.0 -0.0 -0.0 0.0 -9.651699 34.836178 11.199233 -164.452868 -27.575476 -176.062683 173.813005 82.534061 -170.685499 -5.948117 18.658309 0.333035 -5.762555 5.57569 1.158248 -122.604157 -17.107239 108.751948 -166.821797 -43.973781 122.061691 -175.393042 -49.084521 105.812655 -153.32078 13.628946 138.862343 -8.248118 34.416812 8.46912 -0.021306 -1.72602 -0.542654 -3.427442 29.310694 5.042532 -0.344362 -0.890269 -0.318422 -77.749178 -54.928448 -74.964824 143.620413 38.233348 -148.080496 -21.154927 1.324157 -7.562125 -39.58364 67.480436 63.43543 174.989805 27.051951 -144.027567 2.813987 2.754169 -0.498244 66.537259 26.790543 -61.538604 14.228542 19.203392 -9.559881 -2.962127 -6.394608 5.083534 169.08961 -33.247392 -145.374931 159.62334 -2.227891 -141.305838 0.000473 -0.060845 0.019116 -1.098985 -21.734179 2.54132 150.032855 28.966435 145.934982 -3.076964 -2.930904 3.610932 -180.0 75.749642 -0.0 -180.0 73.473292 -180.0 4.999056 -5.893439 124.389772 -91.246149 -69.656613 18.603537 -180.0 75.749642 -0.0 -180.0 73.473292 -180.0 7.301688 -7.016974 97.665964 149.448943 27.17931 -86.210614
140.864 84.0712 3.63314 0.0 -0.0 -0.0 -0.0 -4.771896 -180.0 0.0 -4.771896 -180.0 -7.906765 12.08614 -91.106352 11.93363 8.136982 91.092829 0.0 -0.0 -0.0 0.0 -0.0 -0.0 -9.651699 34.836178 11.199233 -165.573007 -13.604198 -177.314796 -93.160145 -86.072281 -129.910131 161.481822 -37.691758 138.863848 -121.36458 30.329582 71.957921 -62.168797 -6.481966 40.722499 -173.600814 -52.692785 119.892759 -147.545375 -11.192365 113.555424 -125.644075 49.839986 115.274123 3.998674 2.780971 -2.20473 -145.111314 -0.66852 -178.918267 -140.413904 -33.44622 -173.604672 -136.278274 -10.956462 -133.618429 -152.641496 38.796496 -147.709554 80.1661 68.371792 -83.260848 151.86779 63.18897 -172.20882 46.494291 -78.775115 79.635007 -148.69304 -54.072423 -128.957511 -71.831195 -48.263725 -25.791675 21.216705 -9.695026 17.451572 -169.568139 -65.842545 -109.956128 -11.175605 15.329776 -2.777287 160.573436 -6.359341 -143.198121 168.436691 -29.779072 -143.848181 -0.004873 1.771387 -0.556475 165.922959 -1.812974 -172.337288 -0.465225 1.226425 -0.428913 -7.687947 25.17218 -5.915417 -180.0 75.749642 -0.0 -180.0 73.473292 -180.0 5.467228 -7.138989 112.827372 -18.946381 -52.239671 75.325299 -180.0 75.749642 -0.0 -180.0 73.473292 -180.0 7.475086 -7.806967 90.632939 138.928759 -42.289285 -121.772065
140.761 84.0421 3.63102 0.0 -0.0 -0.0 -0.0 0.0 -0.0 -0.0 0.0 -0.0 -8.133567 10.422116 -81.502261 11.496437 6.51512 81.58876 0.0 -0.0 -0.0 0.0 -0.0 -0.0 -9.651699 34.836178 11.199233 -164.452868 -27.575476 -176.062683 173.813005 82.534061 -170.685499 -5.948117 18.658309 0.333035 -5.762555 5.57569 1.158248 -122.604157 -17.107239 108.751948 -166.821797 -43.973781 122.061691 -175.393042 -49.084521 105.812655 -153.32078 13.628946 138.862343 -8.248118 34.416812 8.46912 -0.021306 -1.72602 -0.542654 -3.427442 29.310694 5.042532 -0.344362 -0.890269 -0.318422 -77.749178 -54.928448 -74.964824 143.620413 38.233348 -148.080496 -94.002643 -84.675876 -68.341257 9.790769 -1.411958 8.43062 -16.576495 -41.059121 -7.746883 -1.590029 -1.575931 0.222909 30.320883 24.112305 -26.126642 90.225558 41.072425 -75.796697 8.819296 32.609263 5.811812 160.09819 -4.901163 -142.968881 176.943032 -49.194077 -141.01404 0.014868 -1.323148 0.415899 0.901118 11.229485 -1.7659 -4.053558 11.638461 -3.67681 0.02395 0.54204 0.411748 -180.0 75.749642 -0.0 -180.0 73.473292 -180.0 4.999056 -5.893439 124.389772 -91.246149 -69.656613 18.603537 -180.0 75.749642 -0.0 -180.0 73.473292 -180.0 7.301688 -7.016974 97.665964 149.448943 27.17931 -86.210614
140.597 84.0526 3.6136 0.0 -0.0 -0.0 -0.0 -0.0 -0.0 -0.0 0.0 -0.0 -7.906765 12.08614 -91.106352 11.93363 8.136982 91.092829 0.0 -0.0 -0.0 0.0 -0.0 -0.0 -9.651699 34.836178 11.199233 -165.515307 -14.467457 -177.248258 -178.032321 67.103298 -179.140674 -5.162919 16.302679 0.177884 -78.030619 38.689342 42.41267 11.281297 -19.533515 21.910752 -4.706866 7.223928 2.854949 -110.827516 45.433757 77.739845 -160.673322 -6.667841 143.245105 -19.135162 46.379394 18.342028 0.004779 1.81337 0.569667 -0.123072 -0.237651 -0.37387 32.646368 83.587662 5.695192 -149.50721 13.792354 -140.692135 80.1661 68.371792 -83.260848 -17.024072 0.218031 1.024614 1.710228 63.455262 29.217847 -166.900139 -26.356268 -142.153574 103.199394 36.330979 -60.111426 -23.497019 -32.095743 -24.538675 108.427673 34.160977 -91.742903 -76.097765 -74.871367 -25.063669 -14.567553 -44.052929 2.825371 -1.186305 -1.094316 -2.165557 145.119466 0.267775 179.212461 34.155969 87.45101 -57.641806 124.851156 -29.038378 122.621388 -17.264312 43.635513 -8.978648 -180.0 75.749642 -0.0 -180.0 73.473292 -180.0 4.801803 -5.525369 128.008574 -153.434393 -60.326872 -29.091834 -180.0 75.749642 -0.0 -180.0 73.473292 -180.0 7.166984 -6.598021 101.486098 79.217502 69.217804 -6.421861
140.362 84.1019 3.59634 0.0 -0.0 -0.0 -0.0 0.0 -0.0 -0.0 0.0 -0.0 -8.133567 10.422116 -81.502261 11.496437 6.51512 81.58876 0.0 -0.0 -0.0 0.0 -0.0 -0.0 -9.651699 34.836178 11.199233 -164.452868 -27.575476 -176.062683 173.813005 82.534061 -170.685499 -5.948117 18.658309 0.333035 -0.543938 0.536215 0.086055 -122.823324 -14.552251 110.179729 -166.821797 -43.973781 122.061691 34.42932 -19.01489 -6.613977 -153.32078 13.628946 138.862343 -8.248118 34.416812 8.46912 -0.000142 -0.01849 -0.005809 -165.72339 -0.835565 171.876385 -156.381711 53.734251 -150.117957 -78.706017 -51.284202 -79.244416 143.620413 38.233348 -148.080496 -94.002643 -84.675876 -68.341257 9.790769 -1.411958 8.43062 -16.576495 -41.059121 -7.746883 -171.499924 -25.05528 -87.374741 -132.679685 -66.338388 -101.135636 -10.746993 -19.048016 4.725035 -69.716034 -54.166745 -29.931455 0.219913 0.63841 -0.122732 -7.806557 -23.967986 1.582298 0.000142 -0.018533 0.005823 -0.743016 -12.564308 1.499871 -3.235929 9.114345 -2.947686 87.086406 -53.581451 83.957525 -180.0 75.749642 -0.0 -180.0 73.473292 -180.0 4.999056 -5.893439 124.389772 -91.246149 -69.656613 18.603537 -180.0 75.749642 -0.0 -180.0 73.473292 -180.0 7.301688 -7.016974 97.665964 151.540704 6.688057 -93.167611
140.278 84.098 3.58606 0.0 -0.0 -0.0 -0.0 -0.0 -0.0 -0.0 0.0 -0.0 -7.906765 12.08614 -91.106352 11.93363 8.136982 91.092829 0.0 -0.0 -0.0 0.0 -0.0 -0.0 -9.651699 34.836178 11.199233 -165.515307 -14.467457 -177.248258 -178.032321 67.103298 -179.140674 -5.162919 16.302679 0.177884 -93.743665 37.963835 53.548561 -30.067611 -7.367846 35.617876 -0.327682 0.529888 0.186114 -160.89235 3.792082 108.198204 -141.109072 35.601151 129.174163 -4.137527 26.925408 3.987648 -73.207674 72.973953 91.115943 -160.169382 2.007483 -173.589041 12.123183 40.912292 10.192767 -149.70407 10.630346 -141.409983 80.1661 68.371792 -83.260848 -17.024072 0.218031 1.024614 1.710228 63.455262 29.217847 -166.900139 -26.356268 -142.153574 103.199394 36.330979 -60.111426 32.996036 -9.324862 -35.079466 46.208543 39.652969 -36.318179 172.879759 -20.110244 -120.388877 -23.903801 -61.333833 -1.399383 175.346711 -31.151449 -140.708229 145.119466 0.267775 179.212461 34.155969 87.45101 -57.641806 124.851156 -29.038378 122.621388 6.850145 -25.066982 10.473353 -180.0 75.749642 -0.0 -180.0 73.473292 -180.0 4.801803 -5.525369 128.008574 -153.434393 -60.326872 -29.091834 -180.0 75.749642 -0.0 -180.0 73.473292 -180.0 7.166984 -6.598021 101.486098 79.217502 69.217804 -6.421861
140.219 84.095 3.59991 0.0 -0.0 -0.0 -0.0 0.0 -0.0 -0.0 0.0 -0.0 -8.133567 10.422116 -81.502261 11.496437 6.51512 81.58876 -0.0 -0.0 0.0 -0.0 -0.0 0.0 -9.651699 34.836178 11.199233 -164.452868 -27.575476 -176.062683 173.813005 82.534061 -170.685499 -5.948117 18.658309 0.333035 -0.543938 0.536215 0.086055 -122.823324 -14.552251 110.179729 -166.821797 -43.973781 122.061691 34.42932 -19.01489 -6.613977 -153.32078 13.628946 138.862343 -8.248118 34.416812 8.46912 -0.000142 -0.01849 -0.005809 -165.72339 -0.835565 171.876385 -156.381711 53.734251 -150.117957 -78.706017 -51.284202 -79.244416 143.620413 38.233348 -148.080496 -21.154927 1.324157 -7.562125 -39.58364 67.480436 63.43543 174.989805 27.051951 -144.027567 2.813987 2.754169 -0.498244 -70.045612 -77.76279 -2.509852 14.228542 19.203392 -9.559881 1.379039 0.846576 4.301454 167.375306 -28.008469 -145.269175 5.365434 26.322697 -7.821088 0.000473 -0.060845 0.019116 -1.098985 -21.734179 2.54132 126.797849 -26.619602 124.512652 -21.628086 58.007949 -9.766796 -180.0 75.749642 -0.0 -180.0 73.473292 -180.0 4.999056 -5.893439 124.389772 -91.246149 -69.656613 18.603537 -180.0 75.749642 -0.0 -180.0 73.473292 -180.0 7.301688 -7.016974 97.665964 151.540704 6.688057 -93.167611
140.155 84.0976 3.6089599999999997 0.0 -0.0 -0.0 -0.0 -4.771896 -180.0 0.0 -4.771896 -180.0 -7.906765 12.08614 -91.106352 11.93363 8.136982 91.092829 0.0 -0.0 -0.0 0.0 -0.0 -0.0 -9.651699 34.836178 11.199233 -165.573007 -13.604198 -177.314796 -93.160145 -86.072281 -129.910131 161.481822 -37.691758 138.863848 93.028426 -51.083891 40.500925 -138.530035 17.764337 100.234309 -152.105085 -18.556554 121.367907 20.449552 3.085579 -10.454982 -89.835461 60.702148 81.262754 -146.146847 38.637815 134.851211 0.004873 1.771387 0.556475 -73.485774 -86.550608 -84.572545 -116.537875 -37.224377 -114.498252 47.860108 85.081116 -7.874676 80.1661 68.371792 -83.260848 151.86779 63.18897 -172.20882 46.494291 -78.775115 79.635007 -148.69304 -54.072423 -128.957511 2.890031 2.827845 -0.513516 37.142542 25.231971 -34.504955 121.826156 24.678784 -102.844457 57.212224 63.032395 -42.477194 154.142656 11.63468 -139.428942 166.782272 -26.116977 -145.118386 145.118942 0.185466 179.186604 41.589849 -77.138569 73.343944 -0.098846 0.258289 -0.091255 -0.149278 0.435108 -0.119965 -180.0 75.749642 -0.0 -180.0 73.473292 -180.0 5.467228 -7.138989 112.827372 -29.13572 -65.24666 70.835871 -180.0 75.749642 -0.0 -180.0 73.473292 -180.0 7.475086 -7.806967 90.632939 151.142355 -7.645015 -104.908123
